<svg xmlns="http://www.w3.org/2000/svg" xmlns:xlink="http://www.w3.org/1999/xlink" id="Layer_1" width="18" height="18" x="0" y="0" enable-background="new 0 0 18 18" version="1.1" viewBox="0 0 18 18" xml:space="preserve"><style type="text/css">.st0{fill:none}.st1{fill:#ffb600}</style><path d="M0,0h18v18H0V0z" class="st0"/><path d="M15,3H3C2.2,3,1.5,3.7,1.5,4.5v9C1.5,14.3,2.2,15,3,15h12c0.8,0,1.5-0.7,1.5-1.5v-9C16.5,3.7,15.8,3,15,3z M3,9	h3v1.5H3V9z M10.5,13.5H3V12h7.5V13.5z M15,13.5h-3V12h3V13.5z M15,10.5H7.5V9H15V10.5z" class="st1"/></svg>