<svg xmlns="http://www.w3.org/2000/svg" xmlns:xlink="http://www.w3.org/1999/xlink" id="Layer_1" width="18" height="18" x="0" y="0" enable-background="new 0 0 18 18" version="1.1" viewBox="0 0 18 18" xml:space="preserve"><style type="text/css">.st0{fill:none}.st1{fill:#ffb600}</style><path d="M0,0h18v18H0V0z" class="st0"/><path d="M6.8,12h1.5V6H6.8V12z M9,1.5C4.9,1.5,1.5,4.9,1.5,9s3.4,7.5,7.5,7.5s7.5-3.4,7.5-7.5S13.1,1.5,9,1.5z M9,15	c-3.3,0-6-2.7-6-6s2.7-6,6-6s6,2.7,6,6S12.3,15,9,15z M9.8,12h1.5V6H9.8V12z" class="st1"/></svg>