<svg xmlns="http://www.w3.org/2000/svg" xmlns:xlink="http://www.w3.org/1999/xlink" id="Layer_1" width="18" height="18" x="0" y="0" enable-background="new 0 0 18 18" version="1.1" viewBox="0 0 18 18" xml:space="preserve"><style type="text/css">.st0{fill:#ffb600}.st1{fill:none}</style><path d="M9,10.5c1.2,0,2.2-1,2.2-2.2l0-4.5c0-1.2-1-2.2-2.2-2.2s-2.2,1-2.2,2.2v4.5C6.8,9.5,7.8,10.5,9,10.5z M13,8.2	c0,2.2-1.9,3.8-4,3.8s-4-1.6-4-3.8H3.8c0,2.6,2,4.7,4.5,5v2.5h1.5v-2.5c2.5-0.4,4.5-2.5,4.5-5H13z" class="st0"/><path d="M0,0h18v18H0V0z" class="st1"/></svg>