<svg xmlns="http://www.w3.org/2000/svg" xmlns:xlink="http://www.w3.org/1999/xlink" id="Layer_1" width="35" height="35" x="0" y="0" enable-background="new 0 0 35 35" version="1.1" viewBox="0 0 35 35" xml:space="preserve"><g><path fill="#3B5998" d="M33,35H2c-1.1,0-2-0.9-2-2V2c0-1.1,0.9-2,2-2h31c1.1,0,2,0.9,2,2v31C35,34.1,34.1,35,33,35z"/><path fill="#FFF" d="M22.4,35V21.3h4.4l0.7-5.3h-5.1v-3.4c0-1.5,0.4-2.6,2.6-2.6l2.7,0V5.2c-0.5-0.1-2.1-0.2-4-0.2 c-3.9,0-6.6,2.5-6.6,7V16h-4.4v5.3h4.4V35H22.4z"/></g></svg>