<svg xmlns="http://www.w3.org/2000/svg" xmlns:xlink="http://www.w3.org/1999/xlink" id="Layer_1" width="19" height="17" x="0" y="0" enable-background="new -420 292 19 17" version="1.1" viewBox="-420 292 19 17" xml:space="preserve"><path id="path-1" fill="#FFF" d="M-405.1,307l-0.6-0.5c1.5-1.6,2.4-3.7,2.4-6c0-2.3-0.9-4.4-2.4-6l0.6-0.5c1.6,1.7,2.6,4,2.6,6.5	C-402.5,303-403.5,305.3-405.1,307z M-407.5,305.1l-0.6-0.5c1.1-1,1.8-2.5,1.8-4.1c0-1.6-0.7-3.1-1.8-4.1l0.6-0.5	c1.2,1.2,2,2.8,2,4.6C-405.5,302.3-406.3,303.9-407.5,305.1z M-410.4,302.5c0.6-0.4,1.1-1.1,1.1-2s-0.4-1.5-1.1-2l0.6-0.5	c0.8,0.6,1.2,1.5,1.2,2.5c0,1-0.5,1.9-1.2,2.5L-410.4,302.5z M-418.5,302.5v-4h3l4-3v9.9l-4-3H-418.5z"/></svg>